<?xml version="1.0" standalone="no"?><!DOCTYPE svg PUBLIC "-//W3C//DTD SVG 1.1//EN" "http://www.w3.org/Graphics/SVG/1.1/DTD/svg11.dtd"><svg t="1594717379838" class="icon" viewBox="0 0 1024 1024" version="1.1" xmlns="http://www.w3.org/2000/svg" p-id="768" xmlns:xlink="http://www.w3.org/1999/xlink" width="200" height="200"><defs><style type="text/css"></style></defs><path d="M228.084 37.785l565.197 0.217-0.313 799.349-565.199-0.225z" fill="#CCCCCC" p-id="769"></path><path d="M228.642 39.318l563.029 0.217-0.311 796.282-563.032-0.223z" fill="#FFFFFF" p-id="770"></path><path d="M372.976 124.671l273.338 0.093-0.013 14.023-273.34-0.112zM279.792 159.678l459.681 0.164v14.031l-459.689-0.185zM279.775 184.198l459.688 0.177v14.023l-459.689-0.184zM279.781 208.737l459.671 0.177-0.013 14.018-459.673-0.178zM279.758 233.264l459.687 0.17v14.024l-459.688-0.176zM279.75 257.784l459.674 0.19 0.012 14.017-459.695-0.183zM279.741 282.317l459.687 0.176-0.002 14.018-459.687-0.163zM279.738 306.849l459.668 0.178v14.017l-459.676-0.176zM279.723 331.376l459.673 0.185 0.011 14.016-459.693-0.177zM279.708 355.916l229.856 0.088-0.016 14.017-229.836-0.088z" fill="#CCCCCC" p-id="771"></path><path d="M679.756 432.104c32.918 0.019 59.612 26.718 59.592 59.645-0.025 32.923-26.726 59.599-59.635 59.582-32.925-0.009-59.609-26.716-59.601-59.633 0.013-32.926 26.711-59.602 59.644-59.594z" fill="#58B7A5" p-id="772"></path><path d="M646.895 541.497a60.174 60.174 0 0 1-20.27-22.646l53.1-27.13-32.83 49.776z" fill="#AEDBD6" p-id="773"></path><path d="M626.625 518.854c-4.166-8.152-6.513-17.377-6.513-27.157 0.017-19.068 8.961-36.029 22.888-46.944l36.725 46.97-53.1 27.131z" fill="#99D3CA" p-id="774"></path><path d="M643 444.752c10.118-7.92 22.885-12.643 36.756-12.648l-0.031 59.618L643 444.752z" fill="#82CABD" p-id="775"></path><path d="M679.756 432.104l-0.031 59.618 42.496-41.792c-10.808-10.995-25.844-17.814-42.465-17.826z" fill="#6CC3B3" p-id="776"></path><path d="M279.628 561.313l273.524 0.098v6.987l-273.518-0.103z" fill="#CCCCCC" p-id="777"></path><path d="M279.689 414.824l48.632 0.015-0.06 146.49-48.633-0.016z" fill="#BF1A20" p-id="778"></path><path d="M335.896 470.086l48.626 0.016-0.034 91.245-48.632-0.017z" fill="#CC1D1C" p-id="779"></path><path d="M392.109 501.011l48.626 0.015-0.025 60.337-48.618-0.009z" fill="#D72822" p-id="780"></path><path d="M448.345 472.734l48.625 0.014-0.039 88.645-48.631-0.022z" fill="#E43532" p-id="781"></path><path d="M504.557 498.01l48.627 0.016-0.032 63.385-48.631-0.015z" fill="#E94440" p-id="782"></path><path d="M623.879 561.438l24.539 0.008v7.002l-24.546-0.016zM659.788 561.458l72.907 0.021v6.996l-72.92-0.026zM279.623 590.457l210.956 0.078 0.003 14.019-210.967-0.081zM279.607 614.99l210.963 0.085v14.02l-210.965-0.083zM279.599 639.517l210.975 0.087-0.012 14.007-210.958-0.079zM279.59 664.05l210.963 0.078 0.005 14.017-210.97-0.093zM279.581 688.569l210.969 0.092-0.009 14.017-210.968-0.086zM279.572 713.108l210.963 0.088-0.002 14.015-210.976-0.085zM279.562 737.64l210.962 0.074 0.001 14.023-210.963-0.084zM279.554 762.166l105.487 0.034-0.007 14.025-105.488-0.047zM528.334 590.559l210.969 0.074v14.011l-210.972-0.066zM528.323 615.093l210.972 0.065-0.002 14.021-210.97-0.082zM528.316 639.613l210.968 0.078-0.013 14.019-210.955-0.072zM528.307 664.146l210.955 0.08 0.011 14.016-210.966-0.078zM528.305 688.666l210.965 0.092-0.016 14.011-210.957-0.085zM528.288 713.199l210.972 0.093-0.002 14.01-210.977-0.085zM528.293 737.726l210.943 0.087 0.014 14.016-210.971-0.081zM528.271 762.26l148.502 0.057-0.015 14.025-148.487-0.061z" fill="#CCCCCC" p-id="783"></path><path d="M163.175 84.147l565.197 0.218-0.312 799.346-565.2-0.226z" fill="#CCCCCC" p-id="784"></path><path d="M164.523 85.217l563.031 0.217-0.312 796.283-563.033-0.225z" fill="#FFFFFF" p-id="785"></path><path d="M311.066 176.033l273.338 0.091-0.013 14.023-273.339-0.111zM217.882 211.04l459.682 0.162-0.003 14.031-459.687-0.184zM217.867 235.56l459.686 0.175v14.024l-459.688-0.183zM217.872 260.099l459.673 0.176-0.014 14.017-459.675-0.176zM217.848 284.625l459.686 0.17v14.024l-459.686-0.177zM217.839 309.144l459.677 0.191 0.011 14.016-459.695-0.183zM217.831 333.678l459.687 0.176v14.017l-459.688-0.163zM217.828 358.21l459.665 0.177v14.017l-459.673-0.176zM217.813 382.737l459.673 0.183 0.011 14.018-459.692-0.178zM217.798 407.277l229.856 0.088-0.015 14.016-229.837-0.088z" fill="#CCCCCC" p-id="786"></path><path d="M617.846 483.467c32.916 0.017 59.613 26.714 59.59 59.643-0.023 32.922-26.723 59.599-59.635 59.582-32.924-0.01-59.605-26.718-59.597-59.636 0.011-32.923 26.709-59.6 59.642-59.589z" fill="#58B7A5" p-id="787"></path><path d="M584.986 592.858a60.198 60.198 0 0 1-20.271-22.646l53.098-27.133-32.827 49.779z" fill="#AEDBD6" p-id="788"></path><path d="M564.715 570.214c-4.166-8.151-6.513-17.377-6.511-27.158 0.015-19.066 8.959-36.026 22.888-46.942l36.721 46.968-53.098 27.132z" fill="#99D3CA" p-id="789"></path><path d="M581.092 496.113c10.121-7.918 22.883-12.644 36.754-12.646l-0.033 59.614-36.721-46.968z" fill="#82CABD" p-id="790"></path><path d="M617.846 483.467l-0.033 59.614 42.498-41.791c-10.807-10.995-25.842-17.814-42.465-17.823z" fill="#6CC3B3" p-id="791"></path><path d="M217.719 612.674l273.523 0.097v6.99l-273.518-0.106z" fill="#CCCCCC" p-id="792"></path><path d="M217.779 466.184l48.632 0.015-0.06 146.49-48.632-0.015z" fill="#BF1A20" p-id="793"></path><path d="M273.987 521.446l48.625 0.016-0.034 91.245-48.631-0.017z" fill="#CC1D1C" p-id="794"></path><path d="M330.198 552.37l48.626 0.016-0.023 60.338-48.619-0.009z" fill="#D72822" p-id="795"></path><path d="M386.435 524.093l48.625 0.016-0.039 88.644-48.631-0.022z" fill="#E43532" p-id="796"></path><path d="M442.647 549.374l48.626 0.013-0.031 63.384-48.63-0.015z" fill="#E94440" p-id="797"></path><path d="M561.969 612.8l24.541 0.007-0.002 7.003-24.547-0.018zM597.881 612.819l72.903 0.021-0.002 6.997-72.917-0.027zM217.713 641.815l210.956 0.081 0.006 14.016-210.969-0.078zM217.697 666.351l210.962 0.087v14.017l-210.962-0.081zM217.688 690.877l210.976 0.086-0.014 14.011-210.957-0.081zM217.68 715.409l210.962 0.08 0.005 14.017-210.97-0.093zM217.667 739.975h210.97v14.019h-210.97zM217.662 764.469l210.963 0.087-0.003 14.015-210.975-0.086zM217.653 789.003l210.962 0.073v14.022l-210.964-0.086zM217.644 813.528l105.487 0.035-0.008 14.022-105.486-0.047zM466.424 641.923l210.971 0.071-0.002 14.01-210.97-0.066zM466.414 666.454l210.971 0.067-0.002 14.016-210.97-0.08zM466.406 690.974l210.969 0.08-0.014 14.016-210.957-0.072zM466.398 715.506l210.957 0.081 0.01 14.017-210.969-0.08zM466.396 740.026l210.961 0.092-0.015 14.012-210.955-0.086zM466.38 764.56l210.97 0.093-0.002 14.012-210.977-0.088zM466.384 789.085l210.943 0.088 0.013 14.015-210.972-0.077zM466.362 813.619l148.501 0.062-0.015 14.021-148.487-0.058z" fill="#CCCCCC" p-id="798"></path><path d="M739.014 963.258L609.609 819.599l90.55-79.67 132.068 121.396z" fill="#E3BAAA" p-id="799"></path><path d="M612.497 571.076l57.953 81.99c7.461 10.554 25.267 57.979 15.351 66.271-9.892 8.278-38.701-18.636-45.883-29.379l-37.488-60.384c-21.508-34.616-1.629-50.738 10.067-58.498z" fill="#EFBCA8" p-id="800"></path><path d="M452.816 532.297l84.662 80.521c-19.404-2.942-32.021 23.738-18.465 39.848-19.47-5.75-33.421 18.395-23.974 35.382-18.823-2.348-30.392 24.84-14.752 39.638l71.634 67.825c20.09 19.026 56.258 32.646 74.653 33.783 54.482 3.366 79.299-61.405 72.297-89.821-5.461-22.146-6.899-38.539-17.524-48.874L483.373 501.08c-24.894-24.237-51.559 11.853-30.557 31.217z" fill="#F9CCB8" p-id="801"></path><path d="M519.125 712.854s-14.196-16.22-26.039-29.425a23.275 23.275 0 0 0 1.954 4.619c-1.084-0.123-2.152-0.173-3.193-0.109a8806.358 8806.358 0 0 0 27.278 24.915z m19.016-39.578c-6.336-5.893-15.15-14.108-22.93-21.363 1.229 0.123 2.502 0.372 3.803 0.753-1.976-2.319-3.361-4.871-4.293-7.537 7.18 7.844 16.717 18.629 23.496 26.371l-0.076 1.776z m-6.237-60.49a18.346 18.346 0 0 1 5.025-0.029c0.469 0.177 0.709 0.224 0.549 0.063 0.969 0.946 2.076 2.013 3.223 3.204l-0.198 4.519c-3.073-2.746-5.995-5.404-8.599-7.757z m8.796 3.235c11.386 11.323 30.699 31.755 30.699 31.755s-16.869-14.695-30.897-27.235l0.198-4.52z m6.027 65.217s-3.49-3.238-8.586-7.962l0.076-1.776c5.013 5.698 8.51 9.738 8.51 9.738z" fill="#BF7F69" p-id="802"></path><path d="M727.241 976.096l-96.971-90.997 127.289-135.678 95.272 89.382z" fill="#E8EBEC" p-id="803"></path><path d="M719.4 984.682l-58.349-54.771L801.584 780.1l56.473 52.974z" fill="#8198C8" p-id="804"></path></svg>