<?xml version="1.0" standalone="no"?><!DOCTYPE svg PUBLIC "-//W3C//DTD SVG 1.1//EN" "http://www.w3.org/Graphics/SVG/1.1/DTD/svg11.dtd"><svg t="1594717638884" class="icon" viewBox="0 0 1072 1024" version="1.1" xmlns="http://www.w3.org/2000/svg" p-id="4689" xmlns:xlink="http://www.w3.org/1999/xlink" width="209.375" height="200"><defs><style type="text/css"></style></defs><path d="M864.316676 836.450719L251.57803 482.757237l612.738646-353.839094 16.308633 28.248883-563.812746 325.590211 563.812746 325.590212-16.308633 28.10327z" fill="#484F59" p-id="4690"></path><path d="M503.342554 683.557283a284.527403 284.527403 0 0 1-486.346738-200.654433A284.527403 284.527403 0 0 1 502.905716 281.520353a284.090565 284.090565 0 0 1 0 402.03693z" fill="#84F8FE" p-id="4691"></path><path d="M494.314561 820.142086V599.5387a77.466007 77.466007 0 0 0-50.090802-69.166078 516.925426 516.925426 0 0 0-295.885201 0 78.048459 78.048459 0 0 0-50.236415 69.166078v220.603386z" fill="#FFC400" p-id="4692"></path><path d="M510.331969 836.450719H81.939123V599.5387a93.920253 93.920253 0 0 1 61.594213-84.746647 536.728766 536.728766 0 0 1 305.786871 0A93.774641 93.774641 0 0 1 510.331969 599.5387zM114.410776 803.833453h364.03199v-203.857915a61.885438 61.885438 0 0 0-38.587391-53.585509 505.130789 505.130789 0 0 0-286.565982 0 62.031051 62.031051 0 0 0-38.587391 53.731122z" fill="#484F59" p-id="4693"></path><path d="M396.899601 404.708779a100.618442 100.618442 0 1 1-100.618442-100.618442 100.618442 100.618442 0 0 1 100.618442 100.618442zM189.983818 616.72101zM403.306564 616.72101z" fill="#FFC400" p-id="4694"></path><path d="M296.281159 521.635854a116.490237 116.490237 0 1 1 116.490236-116.490237 116.490237 116.490237 0 0 1-116.490236 116.490237z m0-200.800046a84.309809 84.309809 0 1 0 84.455421 84.309809A84.455422 84.455422 0 0 0 296.281159 320.835808zM172.94712 616.72101h32.617267v199.635143h-32.617267zM387.143543 616.72101h32.617267v199.635143h-32.617267z" fill="#484F59" p-id="4695"></path><path d="M301.523219 783.738887A300.690424 300.690424 0 0 1 88.05486 270.453781a301.127262 301.127262 0 0 1 514.741234 212.303456 301.5641 301.5641 0 0 1-301.127262 300.98165z m0-569.346032a268.364383 268.364383 0 0 0 0 536.728765 268.364383 268.364383 0 1 0 0-536.728765z" fill="#484F59" p-id="4696"></path><path d="M1001.338317 329.572576A183.32651 183.32651 0 1 1 741.419476 70.818638 183.32651 183.32651 0 1 1 1001.338317 329.572576z" fill="#D5E962" p-id="4697"></path><path d="M995.368192 442.713719v-142.118089a49.945189 49.945189 0 0 0-32.180428-44.557516 332.434013 332.434013 0 0 0-190.752763 0 50.090802 50.090802 0 0 0-32.32604 44.557516v142.118089z" fill="#E5E8EC" p-id="4698"></path><path d="M1011.676825 459.022352H723.800328V300.59563a66.399435 66.399435 0 0 1 43.683838-60.138085 350.926838 350.926838 0 0 1 200.217595 0 66.690661 66.690661 0 0 1 43.683839 60.283698zM756.417594 426.405085h222.787578v-125.809455a33.782169 33.782169 0 0 0-20.82263-29.122559 317.435895 317.435895 0 0 0-181.287931 0 33.636556 33.636556 0 0 0-20.677017 29.122559z" fill="#484F59" p-id="4699"></path><path d="M932.609077 175.223012a64.943307 64.943307 0 1 1-64.797694-64.797694A64.943307 64.943307 0 0 1 932.609077 175.223012zM798.790917 311.662202zM936.831848 311.662202z" fill="#FFC400" p-id="4700"></path><path d="M932.609077 175.223012a64.943307 64.943307 0 1 1-64.797694-64.797694A64.943307 64.943307 0 0 1 932.609077 175.223012z" fill="#E5E8EC" p-id="4701"></path><path d="M867.811383 256.183727A81.25194 81.25194 0 1 1 948.91771 175.223012a81.25194 81.25194 0 0 1-81.106327 80.960715z m0-129.741001A48.634674 48.634674 0 1 0 916.446057 175.223012a48.634674 48.634674 0 0 0-48.634674-48.780286z" fill="#484F59" p-id="4702"></path><path d="M871.30609 400.049169A199.780756 199.780756 0 0 1 729.770452 58.732776a199.635143 199.635143 0 1 1 283.071275 282.343211 198.470241 198.470241 0 0 1-141.535637 58.973182z m0-366.944245a167.16349 167.16349 0 0 0-118.237591 285.255467 165.998587 165.998587 0 0 0 118.091978 49.071512A167.16349 167.16349 0 0 0 989.398067 82.030823a165.852975 165.852975 0 0 0-118.091977-48.925899z" fill="#484F59" p-id="4703"></path><path d="M1001.338317 894.550224a183.035285 183.035285 0 1 1 53.439896-129.304162 182.307221 182.307221 0 0 1-53.439896 129.304162z" fill="#D5E962" p-id="4704"></path><path d="M995.368192 1007.691367v-142.118089a49.945189 49.945189 0 0 0-32.180428-44.557516 332.434013 332.434013 0 0 0-190.752763 0 50.090802 50.090802 0 0 0-32.32604 44.557516v142.118089z" fill="#E5E8EC" p-id="4705"></path><path d="M1011.676825 1024H723.800328V865.573278a66.545048 66.545048 0 0 1 43.683838-60.138085 350.926838 350.926838 0 0 1 200.217595 0 66.545048 66.545048 0 0 1 43.683839 60.138085zM756.417594 991.382734h222.787578v-125.809456a33.782169 33.782169 0 0 0-20.82263-29.122559 318.74641 318.74641 0 0 0-181.287931 0 33.636556 33.636556 0 0 0-20.677017 29.122559z" fill="#484F59" p-id="4706"></path><path d="M932.609077 740.055048a64.943307 64.943307 0 1 1-64.797694-64.943307A64.797694 64.797694 0 0 1 932.609077 740.055048zM798.790917 876.63985zM936.831848 876.63985z" fill="#FFC400" p-id="4707"></path><path d="M932.609077 740.055048a64.943307 64.943307 0 1 1-64.797694-64.943307A64.797694 64.797694 0 0 1 932.609077 740.055048z" fill="#E5E8EC" p-id="4708"></path><path d="M867.811383 821.161375a81.25194 81.25194 0 1 1 81.106327-81.106327 81.25194 81.25194 0 0 1-81.106327 81.106327z m0-129.741001a48.634674 48.634674 0 1 0 48.634674 48.634674 48.780287 48.780287 0 0 0-48.634674-48.634674z" fill="#484F59" p-id="4709"></path><path d="M871.30609 965.026818a200.071982 200.071982 0 1 1 141.68125-58.245119 198.324628 198.324628 0 0 1-141.826863 58.245119z m0-366.944246a167.16349 167.16349 0 0 0 0 334.909431 167.16349 167.16349 0 0 0 0-334.909431z" fill="#484F59" p-id="4710"></path></svg>