<?xml version="1.0" standalone="no"?><!DOCTYPE svg PUBLIC "-//W3C//DTD SVG 1.1//EN" "http://www.w3.org/Graphics/SVG/1.1/DTD/svg11.dtd"><svg t="1594717484430" class="icon" viewBox="0 0 1024 1024" version="1.1" xmlns="http://www.w3.org/2000/svg" p-id="1267" xmlns:xlink="http://www.w3.org/1999/xlink" width="200" height="200"><defs><style type="text/css"></style></defs><path d="M824.589474 514.694737h-229.052632c-10.778947 0-21.557895 5.389474-26.947368 16.168421L455.410526 727.578947c-5.389474 10.778947-5.389474 21.557895 0 32.336842l113.178948 196.71579c5.389474 10.778947 16.168421 16.168421 26.947368 16.168421h229.052632c10.778947 0 21.557895-5.389474 26.947368-16.168421l113.178947-196.71579c5.389474-10.778947 5.389474-21.557895 0-32.336842l-113.178947-196.715789c-5.389474-10.778947-16.168421-16.168421-26.947368-16.168421z" fill="#10ABFF" opacity=".4" p-id="1268"></path><path d="M428.463158 285.642105H199.410526c-10.778947 0-21.557895 5.389474-26.947368 16.168421l-113.178947 196.71579c-5.389474 10.778947-5.389474 21.557895 0 32.336842L172.463158 727.578947c5.389474 10.778947 16.168421 16.168421 26.947368 16.168421h229.052632c10.778947 0 21.557895-5.389474 26.947368-16.168421l113.178948-196.715789c5.389474-10.778947 5.389474-21.557895 0-32.336842l-113.178948-196.71579c-5.389474-10.778947-16.168421-16.168421-26.947368-16.168421z" fill="#10ABFF" opacity=".4" p-id="1269"></path><path d="M980.884211 719.494737l-113.178948-196.71579c0-2.694737-2.694737-5.389474-5.389474-5.389473l5.389474-5.389474 113.178948-196.715789c8.084211-16.168421 8.084211-35.031579 0-51.2l-113.178948-196.71579c-8.084211-16.168421-26.947368-24.252632-43.115789-24.252632h-229.052632c-18.863158 0-35.031579 10.778947-43.115789 24.252632l-113.178948 196.71579c-2.694737 2.694737-2.694737 5.389474-2.694737 8.08421H199.410526c-18.863158 0-35.031579 10.778947-43.115789 24.252632l-113.178948 196.715789c-8.084211 16.168421-8.084211 35.031579 0 51.2l113.178948 196.71579c8.084211 16.168421 26.947368 24.252632 43.115789 24.252631h237.136842c0 2.694737 2.694737 5.389474 2.694737 8.084211l113.178948 196.715789c8.084211 16.168421 26.947368 24.252632 43.115789 24.252632h229.052632c18.863158 0 35.031579-10.778947 43.115789-24.252632l113.178948-196.715789c10.778947-21.557895 10.778947-40.421053 0-53.894737zM471.578947 280.252632L584.757895 80.842105c2.694737-2.694737 5.389474-5.389474 10.778947-5.389473h229.052632c5.389474 0 8.084211 2.694737 10.778947 5.389473l113.178947 196.71579c2.694737 2.694737 2.694737 8.084211 0 13.473684L835.368421 490.442105c-2.694737 2.694737-5.389474 5.389474-10.778947 5.389474h-229.052632c-5.389474 0-8.084211-2.694737-10.778947-5.389474l-113.178948-196.715789c-2.694737-5.389474-2.694737-10.778947 0-13.473684zM199.410526 724.884211c-5.389474 0-8.084211-2.694737-10.778947-5.389474l-113.178947-196.71579c-2.694737-2.694737-2.694737-8.084211 0-13.473684L188.631579 309.894737c2.694737-2.694737 5.389474-5.389474 10.778947-5.389474h229.052632c5.389474 0 8.084211 2.694737 10.778947 5.389474l113.178948 196.715789c2.694737 2.694737 2.694737 8.084211 0 13.473685l-113.178948 196.715789c-2.694737 2.694737-5.389474 5.389474-10.778947 5.389474H199.410526z m749.136842 24.252631L835.368421 948.547368c-2.694737 2.694737-5.389474 5.389474-10.778947 5.389474h-229.052632c-5.389474 0-8.084211-2.694737-10.778947-5.389474l-113.178948-196.715789c-2.694737-2.694737-2.694737-8.084211 0-13.473684l113.178948-196.71579c2.694737-2.694737 5.389474-5.389474 10.778947-5.389473h229.052632c5.389474 0 8.084211 2.694737 10.778947 5.389473l113.178947 196.71579c2.694737 2.694737 2.694737 8.084211 0 10.778947z" fill="#10ABFF" p-id="1270"></path></svg>